<svg xmlns="http://www.w3.org/2000/svg" xmlns:xlink="http://www.w3.org/1999/xlink" viewBox="0,0,256,256" width="48px" height="48px" fill-rule="nonzero"><g transform="translate(-35.84,-35.84) scale(1.28,1.28)"><g fill="#f59e0b" fill-rule="nonzero" stroke="none" stroke-width="1" stroke-linecap="butt" stroke-linejoin="miter" stroke-miterlimit="10" stroke-dasharray="" stroke-dashoffset="0" font-family="none" font-weight="none" font-size="none" text-anchor="none" style="mix-blend-mode: normal"><g transform="translate(-2,0) scale(4,4)"><path d="M14,11c-3.31,0 -6,2.69 -6,6v21c0,3.31 2.69,6 6,6h3v3c0,3.309 2.691,6 6,6h28c3.309,0 6,-2.691 6,-6v-21c0,-3.309 -2.691,-6 -6,-6h-3v-3c0,-3.31 -2.69,-6 -6,-6zM14,15h28c1.1,0 2,0.9 2,2v3h-21c-3.309,0 -6,2.691 -6,6v14h-3c-1.1,0 -2,-0.9 -2,-2v-21c0,-1.1 0.9,-2 2,-2zM23,24h28c1.103,0 2,0.897 2,2v18.00586l-7.83008,-7.04102c-1.3,-1.169 -3.27136,-1.16809 -4.56836,0.00391l-7.09766,6.41406l-2.89648,-2.47656c-1.281,-1.095 -3.16931,-1.09219 -4.44531,0.00781l-5.16211,4.44922v-19.36328c0,-1.103 0.897,-2 2,-2zM29.5,29c-1.933,0 -3.5,1.567 -3.5,3.5c0,1.933 1.567,3.5 3.5,3.5c1.933,0 3.5,-1.567 3.5,-3.5c0,-1.933 -1.567,-3.5 -3.5,-3.5z"></path></g></g></g></svg>